<svg id="bees" enable-background="new 0 0 300 300" height="512" viewBox="0 0 300 300" width="512" xmlns="http://www.w3.org/2000/svg"><g><path d="m199.577 130.836c8.23 5.852 16.239 8.939 22.647 8.939 3.957 0 7.305-1.172 9.719-3.588 8.141-8.141 2.121-26.439-14.004-42.564-7.293-7.295-15.55-12.866-23.067-15.653 1.917-3.682 2.958-7.752 2.958-11.969 0-8.368-3.991-15.804-10.15-20.563l7.479-11.218c1.227-1.838.73-4.322-1.109-5.547-1.848-1.229-4.328-.73-5.547 1.109l-7.859 11.789c-2.757-.998-5.716-1.57-8.812-1.57s-6.056.572-8.812 1.57l-7.859-11.789c-1.223-1.84-3.707-2.338-5.547-1.109-1.84 1.225-2.336 3.709-1.109 5.547l7.479 11.218c-6.16 4.759-10.15 12.196-10.15 20.563 0 4.171 1.027 8.207 2.913 11.869-7.594 2.749-15.969 8.361-23.362 15.752-16.125 16.125-22.145 34.424-14.004 42.564 2.434 2.436 5.785 3.615 9.746 3.615 6.47 0 14.554-3.155 22.879-9.141 5.506 12.723 15.906 21.341 27.828 21.341 11.862 0 22.218-8.541 27.743-21.165zm-49.443-35.275c15.138-1.171 29.276-1.124 43.38-.036 1.25 3.742 2.028 7.847 2.234 12.182-15.804-1.303-32.032-1.305-47.836 0 .205-4.32.979-8.413 2.222-12.146zm39.489-8.296c-11.611-.716-23.335-.729-35.611.039 4.396-6.919 10.745-11.303 17.818-11.303 7.061 0 13.398 4.367 17.793 11.264zm-41.428 28.44c15.615-1.308 31.661-1.308 47.27 0-.507 4.228-1.564 8.182-3.067 11.729-13.82-.98-27.314-.98-41.135 0-1.503-3.546-2.56-7.501-3.068-11.729zm78.092 14.825c-2.986 2.986-12.916.814-24.004-7.677.996-4.055 1.547-8.369 1.547-12.853 0-7.583-1.562-14.684-4.252-20.832 4.269 2.599 8.626 6.029 12.705 10.109 14.02 14.021 17.606 27.652 14.004 31.253zm-54.457-82.529c9.926 0 18 8.074 18 18 0 2.75-.617 5.417-1.796 7.846-4.76-3.69-10.287-5.846-16.204-5.846-5.914 0-11.439 2.154-16.198 5.841-1.18-2.431-1.802-5.098-1.802-7.841 0-9.926 8.074-18 18-18zm-54.797 82.529c-3.602-3.602-.016-17.232 14.004-31.252 4.231-4.231 8.76-7.768 13.178-10.397-2.77 6.214-4.385 13.416-4.385 21.12 0 4.399.523 8.639 1.483 12.627-11.209 8.683-21.237 10.951-24.28 7.902zm54.797 13.471c-6.183 0-11.809-3.357-16.067-8.816 10.764-.616 21.371-.616 32.135 0-4.259 5.459-9.885 8.816-16.068 8.816z"/><path d="m110.834 169.407c-3.349-3.35-6.84-6.063-10.266-8.122.837-2.333 1.262-4.773 1.262-7.284 0-8.826-5.237-16.434-12.755-19.935l9.154-6.865c1.77-1.324 2.129-3.832.801-5.6s-3.832-2.131-5.598-.799l-13.602 10.199-13.602-10.199c-1.766-1.326-4.273-.965-5.598.799-1.328 1.768-.969 4.275.801 5.6l9.154 6.865c-7.518 3.502-12.755 11.109-12.755 19.935 0 2.577.452 5.07 1.329 7.449-3.338 2.039-6.732 4.696-9.993 7.957-5.145 5.145-9.105 10.947-11.148 16.338-2.441 6.434-1.957 11.803 1.359 15.119 1.918 1.918 4.543 2.836 7.605 2.836 3.772 0 8.21-1.437 12.792-4.058 5.047 13.528 17.03 23.07 17.586 23.508.727.568 1.598.852 2.469.852s1.742-.283 2.469-.852c.558-.438 12.635-10.053 17.647-23.668 4.682 2.726 9.223 4.219 13.071 4.219 3.059 0 5.688-.918 7.605-2.836 3.316-3.316 3.801-8.686 1.359-15.119-2.041-5.391-6.001-11.194-11.146-16.339zm-45.004-15.406c0-7.719 6.281-14 14-14s14 6.281 14 14c0 1.325-.254 2.603-.625 3.853-5.349-1.708-10.063-1.38-13.205 1.244-3.203-2.672-8.04-2.951-13.512-1.134-.392-1.282-.658-2.595-.658-3.963zm-20.797 41.207c-.742-.74-.883-3.076.461-6.625 1.629-4.293 5.031-9.221 9.328-13.52 7.379-7.376 14.598-10.363 18.168-10.363.922 0 1.602.199 1.977.574 1.824 1.826-.504 10.859-9.789 20.145-9.285 9.281-18.317 11.607-20.145 9.789zm34.793 19.471c-3.727-3.496-10.566-10.909-13.191-19.823 1.413-1.167 2.82-2.402 4.199-3.781 3.952-3.952 7.027-8.1 9.166-12.105 2.139 4.005 5.214 8.153 9.166 12.105 1.293 1.293 2.609 2.46 3.933 3.566-2.57 8.975-9.518 16.502-13.273 20.038zm35.141-19.471c-1.824 1.82-10.859-.508-20.145-9.789-9.285-9.285-11.613-18.318-9.789-20.145.375-.373 1.055-.574 1.977-.574 3.57 0 10.789 2.988 18.168 10.363 4.297 4.299 7.699 9.227 9.328 13.52 1.344 3.549 1.203 5.885.461 6.625z"/><path d="m261.982 213.745c-2.043-5.391-6.004-11.193-11.148-16.338-3.35-3.349-6.841-6.062-10.267-8.12.837-2.333 1.263-4.774 1.263-7.286 0-8.826-5.237-16.434-12.755-19.935l9.154-6.865c1.77-1.324 2.129-3.832.801-5.6-1.324-1.766-3.832-2.133-5.598-.799l-13.602 10.199-13.602-10.199c-1.766-1.328-4.273-.965-5.598.799-1.328 1.768-.969 4.275.801 5.6l9.154 6.865c-7.518 3.502-12.755 11.109-12.755 19.935 0 2.577.452 5.07 1.329 7.449-3.339 2.039-6.733 4.696-9.993 7.957-5.145 5.145-9.105 10.947-11.148 16.338-2.441 6.434-1.957 11.803 1.359 15.119 1.918 1.918 4.543 2.836 7.605 2.836 3.772 0 8.21-1.437 12.792-4.058 5.047 13.528 17.03 23.07 17.586 23.508.727.568 1.598.852 2.469.852s1.742-.283 2.469-.852c.558-.438 12.635-10.053 17.647-23.668 4.682 2.726 9.223 4.219 13.071 4.219 3.059 0 5.688-.918 7.605-2.836 3.318-3.317 3.803-8.686 1.361-15.12zm-56.152-31.744c0-7.719 6.281-14 14-14s14 6.281 14 14c0 1.326-.255 2.605-.626 3.855-5.349-1.708-10.062-1.381-13.204 1.241-3.203-2.672-8.04-2.95-13.512-1.134-.392-1.281-.658-2.594-.658-3.962zm-20.797 41.207c-.742-.74-.883-3.076.461-6.625 1.629-4.293 5.031-9.221 9.328-13.52 7.379-7.377 14.598-10.363 18.168-10.363.922 0 1.602.199 1.977.574 1.824 1.826-.504 10.859-9.789 20.145-9.285 9.281-18.317 11.607-20.145 9.789zm34.793 19.471c-3.727-3.496-10.566-10.909-13.191-19.823 1.413-1.167 2.82-2.402 4.199-3.781 3.952-3.952 7.027-8.1 9.166-12.105 2.139 4.005 5.214 8.153 9.166 12.105 1.293 1.293 2.609 2.46 3.933 3.566-2.57 8.975-9.518 16.502-13.273 20.038zm35.141-19.471c-1.824 1.82-10.859-.508-20.145-9.789-9.285-9.285-11.613-18.318-9.789-20.145.375-.373 1.055-.574 1.977-.574 3.57 0 10.789 2.988 18.168 10.363 4.297 4.299 7.699 9.227 9.328 13.52 1.344 3.549 1.203 5.885.461 6.625z"/><path d="m47.83 208.001c-2.211 0-4 1.791-4 4v28c0 2.209 1.789 4 4 4s4-1.791 4-4v-28c0-2.209-1.789-4-4-4z"/><path d="m59.83 228.001c-2.211 0-4 1.791-4 4v28c0 2.209 1.789 4 4 4s4-1.791 4-4v-28c0-2.209-1.789-4-4-4z"/><path d="m99.83 216.001c-2.211 0-4 1.791-4 4v4c0 2.209 1.789 4 4 4s4-1.791 4-4v-4c0-2.209-1.789-4-4-4z"/><path d="m115.83 220.001c-2.211 0-4 1.791-4 4v24c0 2.209 1.789 4 4 4s4-1.791 4-4v-24c0-2.209-1.789-4-4-4z"/><path d="m139.83 144.001c-2.211 0-4 1.791-4 4v32c0 2.209 1.789 4 4 4s4-1.791 4-4v-32c0-2.209-1.789-4-4-4z"/><path d="m187.83 256.001c-2.211 0-4 1.791-4 4v8c0 2.209 1.789 4 4 4s4-1.791 4-4v-8c0-2.209-1.789-4-4-4z"/><path d="m251.83 236.001c-2.211 0-4 1.791-4 4v28c0 2.209 1.789 4 4 4s4-1.791 4-4v-28c0-2.209-1.789-4-4-4z"/><path d="m155.83 168.001c-2.211 0-4 1.791-4 4v40c0 2.209 1.789 4 4 4s4-1.791 4-4v-40c0-2.209-1.789-4-4-4z"/><path d="m179.83 176.001c2.211 0 4-1.791 4-4v-8c0-2.209-1.789-4-4-4s-4 1.791-4 4v8c0 2.209 1.789 4 4 4z"/><path d="m87.83 55.513c2.211 0 4-1.791 4-4v-5.66c0-2.209-1.789-4-4-4s-4 1.791-4 4v5.66c0 2.209 1.789 4 4 4z"/><path d="m87.83 78.15c2.211 0 4-1.791 4-4v-5.66c0-2.209-1.789-4-4-4s-4 1.791-4 4v5.66c0 2.209 1.789 4 4 4z"/><path d="m73.682 64.001h5.66c2.211 0 4-1.791 4-4s-1.789-4-4-4h-5.66c-2.211 0-4 1.791-4 4s1.789 4 4 4z"/><path d="m96.318 64.001h5.66c2.211 0 4-1.791 4-4s-1.789-4-4-4h-5.66c-2.211 0-4 1.791-4 4s1.789 4 4 4z"/></g></svg>