<svg id="Capa_1" enable-background="new 0 0 512 512" height="512" viewBox="0 0 512 512" width="512" xmlns="http://www.w3.org/2000/svg"><g><g><path d="m507.937 82.716h-162.434v-36.62c0-7.062-5.648-12.812-12.593-12.812h-74.72-74.719c-6.945 0-12.593 5.75-12.593 12.812v36.62h-166.815c-2.243 0-4.063 1.821-4.063 4.064v44.938c0 2.243 1.82 4.063 4.063 4.063h17.928l-.186 338.859c0 1.081.427 2.117 1.187 2.877.764.764 1.796 1.191 2.877 1.191l464.542.008c1.077 0 2.113-.427 2.873-1.191s1.191-1.792 1.191-2.873v-338.87h13.462c2.243 0 4.063-1.82 4.063-4.063v-44.939c0-2.247-1.82-4.064-4.063-4.064zm-328.932-36.62c0-2.584 2.003-4.685 4.466-4.685h74.719 74.719c2.462 0 4.466 2.101 4.466 4.685v36.62h-13.779v-15.876c0-7.522-5.648-13.641-12.593-13.641h-105.626c-6.945 0-12.593 6.12-12.593 13.641v15.876h-13.779zm21.906 36.62v-15.876c0-3.039 2.003-5.514 4.466-5.514h105.622c2.462 0 4.466 2.475 4.466 5.514v15.876zm285.436 387.869-456.416-.008.183-334.799h22.544l-.102 188.737c-.081.325-.13.658-.13 1.004v43.26c0 .134.061.244.073.374.004.167.004.333.028.5l-.049 87.893c-.037.219-.057.443-.057.675 0 2.247 1.82 4.064 4.063 4.064h403.249c2.243 0 4.064-1.816 4.064-4.064v-322.439h22.544v334.803zm-323.685-334.803v34.129l-32.866 19.48-32.866-19.48v-34.129zm73.87 0v34.129l-32.87 19.484-32.874-19.484v-34.129zm73.862 0v34.129l-32.866 19.48-32.87-19.48v-34.129zm73.59 0v34.137l-32.601 19.468-32.861-19.476v-34.129zm71.692 0v115.513l-27.034-16.238.394-40.903c.012-1.451-.744-2.796-1.991-3.535l-34.938-20.708v-34.129zm-362.813 41.167 32.866 19.48v39.148l-32.866 19.48-32.13-19.046.02-40.034zm73.862 0 32.87 19.48v39.148l-32.87 19.48-32.866-19.48v-39.148zm36.937 65.662 32.886 19.493v38.648l-12.885 7.818-19.988 12.121-32.87-19.94v-38.664zm36.933-65.662 32.87 19.48v39.148l-32.87 19.48-32.866-19.48v-39.148zm73.862 0 32.87 19.48.012 19.07.012 19.558-32.918 19.984-32.841-19.468v-39.148zm40.997 19.468 32.597-19.468 32.837 19.464-.378 38.766-32.012 21.792-33.024-21.817-.012-20.472zm100.222 185.543-26.327-15.604v-39.152l26.327-15.604zm0-79.803-30.395 18.013-32.861-19.476.167-36.681 32.106-21.853 30.984 18.611v41.386zm-288.939 83.716-32.874-19.48v-38.656l32.874-19.94 32.87 19.94v38.656zm-77.925-85.101-28.127 17.375.041-72.696 28.087 16.648v38.673zm-28.156 75.455 28.152 16.685v39.148l-28.193 16.713zm.004-9.444.02-39.075 32.211-19.899 32.845 19.923v38.66l-32.866 19.476zm36.6 65.467-.309-39.355 32.849-19.464 32.87 19.476v39.152l-32.87 19.48zm73.545-39.343 32.866-19.476 32.87 19.476v39.152l-32.87 19.48-32.866-19.48zm36.933-26.514v-38.656l32.87-19.94 32.87 19.94.012 38.623-32.886 19.509zm36.929 26.514 32.886-19.509 32.849 19.468v39.188l-32.866 19.484-32.866-19.48v-39.152h-.003zm69.815-7.066-32.866-19.484-.012-38.623 32.906-19.988 32.845 19.464v39.152zm4.063-85.151v-38.64l32.776-19.899 33.138 21.89-.167 36.645-32.878 19.488zm36.933 26.519 32.866-19.48 32.866 19.48v39.152l-32.866 19.48-32.866-19.48zm-45.06-65.097v38.611l-32.882 19.972-32.861-19.935v-38.672l32.853-19.472zm-147.744-.009v38.648l-32.87 19.94-32.866-19.935v-38.668l32.853-19.472zm-69.803 176.994 25.405 15.059h-50.806zm73.866-.004 25.409 15.059h-50.818zm73.866.004 25.405 15.059h-50.81zm75.935-1.231c1.235-.736 1.991-2.06 1.991-3.495v-41.484l32.886-19.488 34.861 20.663c.638.378 1.353.569 2.072.569s1.434-.191 2.072-.569l34.865-20.663 30.395 18.013v62.744h-166.619zm-227.739-267.955-28.042 16.62.028-50.749h28.014zm415.074-42.256h-115.789c-.012 0-.024-.008-.041-.008-.016 0-.024.008-.041.008h-73.509c-.012 0-.024-.008-.041-.008-.016 0-.024.008-.041.008h-73.777c-.012 0-.024-.008-.041-.008-.016 0-.024.008-.041.008h-214.456c-.012 0-.024-.008-.041-.008-.012 0-.024.008-.041.008h-17.887v-36.812h495.746z"/><path d="m315.343 242.083c7.66 0 13.893-6.246 13.893-13.922s-6.233-13.922-13.893-13.922-13.893 6.246-13.893 13.922 6.234 13.922 13.893 13.922zm0-19.716c3.182 0 5.766 2.601 5.766 5.795s-2.588 5.795-5.766 5.795-5.766-2.601-5.766-5.795c0-3.195 2.589-5.795 5.766-5.795z"/><path d="m393.988 215.792c7.66 0 13.893-6.246 13.893-13.922 0-7.68-6.233-13.926-13.893-13.926s-13.893 6.246-13.893 13.926c-.004 7.676 6.229 13.922 13.893 13.922zm0-19.72c3.178 0 5.766 2.601 5.766 5.799s-2.588 5.795-5.766 5.795c-3.182 0-5.766-2.601-5.766-5.795 0-3.195 2.584-5.799 5.766-5.799z"/><path d="m364.495 276.679c-7.66 0-13.893 6.246-13.893 13.926 0 7.676 6.233 13.922 13.893 13.922s13.893-6.246 13.893-13.922-6.233-13.926-13.893-13.926zm0 19.72c-3.178 0-5.766-2.601-5.766-5.795 0-3.198 2.588-5.799 5.766-5.799s5.766 2.601 5.766 5.799c0 3.195-2.588 5.795-5.766 5.795z"/><path d="m151.515 325.977c-7.66 0-13.893 6.246-13.893 13.926s6.233 13.926 13.893 13.926 13.893-6.246 13.893-13.926-6.233-13.926-13.893-13.926zm0 19.725c-3.182 0-5.766-2.601-5.766-5.799s2.588-5.799 5.766-5.799 5.766 2.601 5.766 5.799-2.588 5.799-5.766 5.799z"/><path d="m135.916 399.063c0-7.68-6.233-13.926-13.893-13.926s-13.893 6.246-13.893 13.926c0 7.676 6.233 13.922 13.893 13.922s13.893-6.25 13.893-13.922zm-13.893 5.791c-3.182 0-5.766-2.601-5.766-5.795 0-3.198 2.588-5.799 5.766-5.799s5.766 2.601 5.766 5.799-2.585 5.795-5.766 5.795z"/></g></g></svg>