<svg xmlns="http://www.w3.org/2000/svg" width="22" height="21.461" viewBox="0 0 22 21.461">
  <path id="Path_30" d="M187.441,138.929l-.561-2.455a6,6,0,0,0,1.592-2.267.249.249,0,0,0-.035-.253l-1.9-2.382a.249.249,0,0,0-.239-.09,6,6,0,0,0-2.564,1.048l-2.269-1.093a6.005,6.005,0,0,0-.78-2.658.25.25,0,0,0-.22-.131H177.42a.251.251,0,0,0-.22.131,6,6,0,0,0-.779,2.658l-2.269,1.093a6,6,0,0,0-2.564-1.048.248.248,0,0,0-.239.09l-1.9,2.382a.249.249,0,0,0-.035.253,6,6,0,0,0,1.592,2.267l-.561,2.455a6,6,0,0,0-2.418,1.351.25.25,0,0,0-.078.243l.678,2.97a.251.251,0,0,0,.176.185,6.008,6.008,0,0,0,2.764.168l1.571,1.969a6,6,0,0,0-.451,2.733.25.25,0,0,0,.141.213l2.745,1.322a.247.247,0,0,0,.108.025.251.251,0,0,0,.146-.047,6,6,0,0,0,1.856-2.057H180.2a6,6,0,0,0,1.856,2.056.25.25,0,0,0,.255.022l2.745-1.322a.249.249,0,0,0,.141-.213,6,6,0,0,0-.451-2.733l1.571-1.969a6,6,0,0,0,2.764-.168.251.251,0,0,0,.176-.185l.678-2.97a.249.249,0,0,0-.078-.243A6,6,0,0,0,187.441,138.929Zm-3.5.648a5,5,0,1,1-5-5A5.006,5.006,0,0,1,183.943,139.577Z" transform="translate(-167.943 -128.648)" fill="#4d4d4d"/>
</svg>
